<svg version="1.1" id="Layer_1" xmlns="http://www.w3.org/2000/svg" x="0" y="0" viewBox="0 0 1000 389" style="enable-background:new 0 0 1000 389" xml:space="preserve"><style>.st0{fill:#21409a}</style><g id="g30" transform="matrix(.84608 0 0 .84608 88.561 248.291)"><g id="g6"><path id="path4" class="st0" d="M778.7-58.4c-56.4 0-100.6 50.1-102.3 112.1-3.1 106.7 139.2 143.6 185.9 84.7V93.1s-14.7 25.6-72.3 25.6-59.5-42.8-59.5-42.8h148.4c1.3-7.3 2.1-14.7 2.1-22.4-.2-61.8-45.9-111.9-102.3-111.9zm-49 96.6c6.1-23.9 26.4-41.3 50.3-41.3 24.1 0 44.4 17.6 50.3 41.3H729.7zM42.4-26.7C26.7-44.3 6.1-55-16.7-55c-48.6 0-88 49.2-88 110 0 60.6 39.4 110 88.2 110 22.8 0 43.4-10.7 59.1-28.3v27h56.6V-53.8H42.4v27.1zM.3 116.2c-24.9 0-45.1-27-45.1-60.2S-24.5-4.3.3-4.3s45.1 27 45.1 60.2c-.1 33.3-20.2 60.3-45.1 60.3zm420 22.2V-4.3s-3.6-51.1-56.8-51.1-64.6 29.6-64.6 29.6S283.4-58 243-58c-33.3 0-51.1 19.3-56.4 26.2V-55h-55.5v217.8h55.5v-142c3.4-8.8 13-26.2 32.9-26.2 21.8 0 28.3 18 29.6 28.7V138c2.1 10.9 8.4 18.6 16.3 24.9h55.5c-8.8-7.3-14.3-15.3-16.3-24.5V31.1S302.9-3.5 336-5.2c23.9-1.1 28.3 20.7 28.9 32.7v110.3c2.1 10.9 8.4 18.6 16.3 24.9h55.5c-8.9-7.1-14.7-15.1-16.4-24.3zM573.9-55c-22.8 0-43.4 10.7-59.1 28.3V-121h-56.6v284.6h56.6v-27.2c15.7 17.6 36.3 28.3 59.1 28.3 48.6 0 88.2-49.2 88.2-110C661.9-5.8 622.5-55 573.9-55zm-16.8 171.2c-24.9 0-45.1-27-45.1-60.2s20.3-60.2 45.1-60.2 45.1 27 45.1 60.2c-.2 33.2-20.3 60.2-45.1 60.2zm456.1-171L972.3 98.6 931.1-54.8h-65.6L938.2 163h62.3l76.7-217.8h-64z"/></g><g id="g28"><path id="path8" class="st0" d="M197.9-200.3c-.2-.4-.2-.8-.4-1-4.4 5-9.2 8-15.3 9.9-6.3 1.9-11.7 1.9-15.9-.2-4.8-2.3-8.2-7.1-10.5-14.2-2.3-7.3-2.1-13.4.4-18 2.3-4 6.3-6.9 11.9-8.8 4.2-1.3 9.6-2.1 14.7-2.1l-4.4-11.3h-1.9c-5 0-9.9.8-14.9 2.3-20.1 6.3-28.9 23.5-22.6 43.4 3.1 9.4 8.2 16.6 15.3 20.8 7.5 4.6 16.6 5.2 26.4 2.1 8-2.5 13.4-6.7 15.9-12.2 2.2-4 2-8.4 1.3-10.7z"/><path id="polygon10" class="st0" d="m275.1-202.8-2.2-12.6-32.4 7.8-3.4-14.1h.2l24.8-6.2-3-12.4-25.3 6.1-3.2-13.7h.2l31.3-7.9-3-12.4-47.4 11.7 16 65.4z"/><path id="path12" class="st0" d="M348-233.2c-4.6-4.8-9.4-9.8-14.9-10.9l-.8-.2.8-.2c8.6-3.1 13.2-11.1 11.7-20.1-.6-3.6-2.5-8.6-7.6-11.9-5-3.3-12-4.2-20.8-2.5l-25.6 4.6 11.7 66.4 16.1-2.9-9.6-53.7 6.9-1.1c7.5-1.3 11.9 1.1 13 7.5 1.7 9.9-8.4 13.4-12.4 14.7 4.8 2.5 9 8.2 13.2 13.8 2.3 3.1 4.6 6.3 7.1 8.8 3.8 4 8 6.5 15.5 5.2 2.1-.4 9.2-1.9 12.2-6.1-3.6 0-7.1-1.9-11.7-6.1-1.7-2.1-3.3-3.8-4.8-5.3z"/><path id="polygon14" class="st0" d="m403.7-235.3-18.8-52-18.7 1.9 27.3 64.8 21.6-2.5 13.6-69.2-17.2 1.9z"/><path id="polygon16" class="st0" d="m504.5-239-33.3.4-.2-14.5 25.8-.4-.2-12.8-25.8.4-.2-14.4h.2l32.3-.3-.2-12.9-48.7.6.9 67.3 49.5-.5z"/><path id="path18" class="st0" d="M534.1-235.7c-2.5 0-5.5-1-8-2.1 0 3.8 1 7.1 3.1 9.6 2.5 2.9 6.1 4.4 10.9 4.6 5 .2 9.4-1.1 12.2-3.8 3.6-3.4 5.5-9 5.9-17.2l1.9-46.7-16.4-.6-1.9 47.8c0 4.2-1.2 8.6-7.7 8.4z"/><path id="path20" class="st0" d="M603.9-286.6 576.4-222l15.9 1.7 5-12.8h.2l20.7 2.3 1.9 13.6 17.4 1.9-11.7-69-21.9-2.3zm12.1 42.9-14-1.5 10.5-27 3.8 28.5h-.3z"/><path id="path22" class="st0" d="M714.1-212.2c-1-1.9-1.9-4-2.7-6.1-2.7-6.1-5.4-12.4-10.1-15.5l-.8-.4H701.7c9 0 15.9-5.9 17.6-14.7.6-3.6.8-9-3.1-14-3.6-4.8-9.9-8-18.6-9.8l-25.8-4.4-12.2 66.2 15.9 2.9 9.8-53.5 6.9 1.3c7.5 1.3 10.7 5.2 9.6 11.5-1.9 9.9-12.4 9.8-16.8 9.4 3.6 4 5.5 10.9 7.5 17.4 1.1 3.6 2.1 7.6 3.4 10.7 2.3 5.2 5.2 8.8 12.8 10.1 2.1.4 9.4 1.3 13.8-1.5-3.1-1.2-5.8-4-8.4-9.6z"/><path id="rect24" transform="rotate(-76.403 756.015 -224.875)" class="st0" d="M722.4-233h67.3v16.3h-67.3z"/><path id="path26" class="st0" d="m790.2-179.9 7.3-11.7h.2l19.9 6.3-.8 13.6 16.6 5.2 1.9-70-20.8-6.5-39.4 58.1 15.1 5zm14.5-23.1 15.3-24.1-1.9 28.7-13.6-4.2.2-.4z"/></g></g></svg>